<svg width="24" height="24" viewBox="0 0 24 24" fill="none" xmlns="http://www.w3.org/2000/svg">
<g clip-path="url(#clip0_136_11512)">
<path d="M20.8598 8.36997L13.9298 2.82997C12.8598 1.96997 11.1298 1.96997 10.0698 2.81997L3.13978 8.36997C2.35978 8.98997 1.85978 10.3 2.02978 11.28L3.35978 19.24C3.59978 20.66 4.95978 21.81 6.39978 21.81H17.5998C19.0298 21.81 20.3998 20.65 20.6398 19.24L21.9698 11.28C22.1298 10.3 21.6298 8.98997 20.8598 8.36997ZM11.9998 15.5C11.3367 15.5 10.7009 15.2366 10.232 14.7677C9.76317 14.2989 9.49978 13.663 9.49978 13C9.49978 12.3369 9.76317 11.701 10.232 11.2322C10.7009 10.7634 11.3367 10.5 11.9998 10.5C12.6628 10.5 13.2987 10.7634 13.7675 11.2322C14.2364 11.701 14.4998 12.3369 14.4998 13C14.4998 13.663 14.2364 14.2989 13.7675 14.7677C13.2987 15.2366 12.6628 15.5 11.9998 15.5Z" fill="#6944FF"/>
</g>
<defs>
<clipPath id="clip0_136_11512">
<rect width="24" height="24" fill="white"/>
</clipPath>
</defs>
</svg>
