<svg width="24" height="24" viewBox="0 0 24 24" fill="none" xmlns="http://www.w3.org/2000/svg">
<path d="M12.6759 19.959C12.9509 20.023 12.9759 20.383 12.7079 20.472L11.1279 20.992C7.1579 22.272 5.0679 21.202 3.7779 17.232L2.4979 13.282C1.2179 9.312 2.2779 7.212 6.2479 5.932L6.7719 5.758C7.1749 5.625 7.5669 6.029 7.4519 6.438C7.3959 6.64 7.3419 6.852 7.2879 7.072L6.3079 11.262C5.2079 15.972 6.8179 18.572 11.5279 19.692L12.6759 19.959Z" fill="#6944FF"/>
<path d="M17.1702 3.20903L15.5002 2.81903C12.1602 2.02903 10.1702 2.67903 9.00018 5.09903C8.70018 5.70903 8.46018 6.44903 8.26018 7.29903L7.28018 11.489C6.30018 15.669 7.59018 17.729 11.7602 18.719L13.4402 19.119C14.0202 19.259 14.5602 19.349 15.0602 19.389C18.1802 19.689 19.8402 18.229 20.6802 14.619L21.6602 10.439C22.6402 6.25903 21.3602 4.18903 17.1702 3.20903ZM15.2902 13.329C15.2002 13.669 14.9002 13.889 14.5602 13.889C14.5002 13.889 14.4402 13.879 14.3702 13.869L11.4602 13.129C11.2797 13.0695 11.1286 12.9438 11.0373 12.7771C10.946 12.6105 10.9214 12.4154 10.9683 12.2313C11.0153 12.0472 11.1304 11.8878 11.2904 11.7853C11.4504 11.6828 11.6433 11.6448 11.8302 11.679L14.7402 12.419C15.1502 12.519 15.3902 12.929 15.2902 13.329ZM18.2202 9.94903C18.1302 10.289 17.8302 10.509 17.4902 10.509C17.4302 10.509 17.3702 10.499 17.3002 10.489L12.4502 9.25903C12.2697 9.19953 12.1186 9.07376 12.0273 8.90713C11.936 8.74049 11.9114 8.54542 11.9583 8.36132C12.0053 8.17722 12.1204 8.01781 12.2804 7.91529C12.4404 7.81278 12.6333 7.7748 12.8202 7.80903L17.6702 9.03903C18.0802 9.12903 18.3202 9.53903 18.2202 9.94903Z" fill="#6944FF"/>
</svg>
