<svg width="24" height="24" viewBox="0 0 24 24" fill="none" xmlns="http://www.w3.org/2000/svg">
<path d="M15.9978 22.752H7.99779C3.37779 22.752 2.51779 20.602 2.29779 18.512L1.54779 10.502C1.43779 9.45202 1.40779 7.90202 2.44779 6.74202C3.34779 5.74202 4.83779 5.26202 6.99779 5.26202H16.9978C19.1678 5.26202 20.6578 5.75202 21.5478 6.74202C22.5878 7.90202 22.5578 9.45202 22.4478 10.512L21.6978 18.502C21.4778 20.602 20.6178 22.752 15.9978 22.752ZM6.99779 6.75202C5.30779 6.75202 4.14779 7.08202 3.55779 7.74202C3.06779 8.28202 2.90779 9.11202 3.03779 10.352L3.78779 18.362C3.95779 19.942 4.38779 21.252 7.99779 21.252H15.9978C19.5978 21.252 20.0378 19.942 20.2078 18.352L20.9578 10.362C21.0878 9.11202 20.9278 8.28202 20.4378 7.74202C19.8478 7.08202 18.6878 6.75202 16.9978 6.75202H6.99779Z" fill="#7D8998"/>
<path d="M16 6.75C15.59 6.75 15.25 6.41 15.25 6V5.2C15.25 3.42 15.25 2.75 12.8 2.75H11.2C8.75 2.75 8.75 3.42 8.75 5.2V6C8.75 6.41 8.41 6.75 8 6.75C7.59 6.75 7.25 6.41 7.25 6V5.2C7.25 3.44 7.25 1.25 11.2 1.25H12.8C16.75 1.25 16.75 3.44 16.75 5.2V6C16.75 6.41 16.41 6.75 16 6.75ZM12 16.75C9.25 16.75 9.25 15.05 9.25 14.03V13C9.25 11.59 9.59 11.25 11 11.25H13C14.41 11.25 14.75 11.59 14.75 13V14C14.75 15.04 14.75 16.75 12 16.75ZM10.75 12.75V14.03C10.75 15.06 10.75 15.25 12 15.25C13.25 15.25 13.25 15.09 13.25 14.02V12.75H10.75Z" fill="#7D8998"/>
<path d="M14.0001 14.768C13.6301 14.768 13.3001 14.488 13.2601 14.108C13.2101 13.698 13.5001 13.318 13.9101 13.268C16.5501 12.938 19.0801 11.938 21.2101 10.388C21.5401 10.138 22.0101 10.218 22.2601 10.558C22.5001 10.888 22.4301 11.358 22.0901 11.608C19.7501 13.308 16.9901 14.398 14.0901 14.768H14.0001ZM10.0001 14.78H9.91007C7.17007 14.47 4.50007 13.47 2.19007 11.89C2.02652 11.7779 1.91379 11.6058 1.87635 11.4111C1.8389 11.2164 1.87977 11.0147 1.99007 10.85C2.22007 10.51 2.69007 10.42 3.03007 10.65C5.14007 12.09 7.57007 13 10.0701 13.29C10.4801 13.34 10.7801 13.71 10.7301 14.12C10.7001 14.5 10.3801 14.78 10.0001 14.78Z" fill="#7D8998"/>
</svg>
