<svg width="24" height="24" viewBox="0 0 24 24" fill="none" xmlns="http://www.w3.org/2000/svg">
<path d="M15.8081 20.179C15.5481 20.179 15.2781 20.169 14.9881 20.139C14.4681 20.099 13.8781 19.999 13.2681 19.849L11.5881 19.449C6.97812 18.359 5.46812 15.919 6.54812 11.319L7.52812 7.12898C7.74812 6.17898 8.00812 5.40898 8.32812 4.76898C10.0481 1.21898 13.3381 1.53898 15.6781 2.08898L17.3481 2.47898C19.6881 3.02898 21.1681 3.89898 21.9981 5.22898C22.8181 6.55898 22.9481 8.26898 22.3981 10.609L21.4181 14.789C20.5581 18.449 18.7681 20.179 15.8081 20.179ZM13.1181 3.24898C11.4481 3.24898 10.3881 3.93898 9.67812 5.41898C9.41812 5.95898 9.18812 6.62898 8.98812 7.46898L8.00812 11.659C7.11812 15.439 8.14812 17.089 11.9281 17.989L13.6081 18.389C14.1481 18.519 14.6581 18.599 15.1181 18.639C17.8381 18.909 19.1881 17.719 19.9481 14.449L20.9281 10.269C21.3781 8.33898 21.3181 6.98898 20.7181 6.01898C20.1181 5.04898 18.9381 4.38898 16.9981 3.93898L15.3281 3.54898C14.4981 3.34898 13.7581 3.24898 13.1181 3.24898Z" fill="#7D8998"/>
<path d="M8.33005 22.252C5.76005 22.252 4.12005 20.712 3.07005 17.462L1.79005 13.512C0.370052 9.112 1.64005 6.632 6.02005 5.212L7.60005 4.702C8.12005 4.542 8.51005 4.432 8.86005 4.372C9.15005 4.312 9.43005 4.422 9.60005 4.652C9.77005 4.882 9.80005 5.182 9.68005 5.442C9.42005 5.972 9.19005 6.642 9.00005 7.482L8.02005 11.672C7.13005 15.452 8.16005 17.102 11.9401 18.002L13.6201 18.402C14.1601 18.532 14.6701 18.612 15.1301 18.652C15.4501 18.682 15.7101 18.902 15.8001 19.212C15.8801 19.522 15.7601 19.842 15.5001 20.022C14.8401 20.472 14.0101 20.852 12.9601 21.192L11.3801 21.712C10.2301 22.072 9.23005 22.252 8.33005 22.252ZM7.78005 6.222L6.49005 6.642C2.92005 7.792 2.07005 9.472 3.22005 13.052L4.50005 17.002C5.66005 20.572 7.34005 21.432 10.9101 20.282L12.4901 19.762C12.5501 19.742 12.6001 19.722 12.6601 19.702L11.6001 19.452C6.99005 18.362 5.48005 15.922 6.56005 11.322L7.54005 7.132C7.61005 6.812 7.69005 6.502 7.78005 6.222ZM17.4901 10.512C17.4301 10.512 17.3701 10.502 17.3001 10.492L12.4501 9.262C12.2696 9.2025 12.1185 9.07673 12.0272 8.9101C11.9359 8.74347 11.9112 8.5484 11.9582 8.36429C12.0052 8.18019 12.1203 8.02078 12.2803 7.91827C12.4402 7.81575 12.6332 7.77777 12.8201 7.812L17.6701 9.042C17.8439 9.08893 17.995 9.197 18.0955 9.34635C18.1961 9.49571 18.2394 9.67634 18.2176 9.85507C18.1957 10.0338 18.1101 10.1986 17.9764 10.3193C17.8428 10.44 17.6701 10.5084 17.4901 10.512Z" fill="#7D8998"/>
<path d="M14.5609 13.889C14.5009 13.889 14.4409 13.879 14.3709 13.869L11.4609 13.129C11.2805 13.0695 11.1293 12.9437 11.0381 12.7771C10.9468 12.6105 10.9221 12.4154 10.9691 12.2313C11.0161 12.0472 11.1312 11.8878 11.2911 11.7853C11.4511 11.6828 11.644 11.6448 11.8309 11.679L14.7409 12.419C15.1409 12.519 15.3809 12.929 15.2809 13.329C15.2009 13.669 14.9009 13.889 14.5609 13.889Z" fill="#7D8998"/>
</svg>
