<svg width="24" height="24" viewBox="0 0 24 24" fill="none" xmlns="http://www.w3.org/2000/svg">
<path d="M17.5998 22.56H6.39984C4.57984 22.56 2.91984 21.16 2.61984 19.36L1.28984 11.4C1.07984 10.16 1.67984 8.57001 2.66984 7.78001L9.59984 2.23001C10.9398 1.15001 13.0498 1.16001 14.3998 2.24001L21.3298 7.78001C22.3098 8.57001 22.9098 10.16 22.7098 11.4L21.3798 19.36C21.0798 21.13 19.3898 22.56 17.5998 22.56ZM11.9898 2.94001C11.4598 2.94001 10.9298 3.10001 10.5398 3.41001L3.60984 8.96001C3.03984 9.42001 2.64984 10.44 2.76984 11.16L4.09984 19.12C4.27984 20.17 5.32984 21.06 6.39984 21.06H17.5998C18.6698 21.06 19.7198 20.17 19.8998 19.11L21.2298 11.15C21.3498 10.43 20.9498 9.4 20.3898 8.95001L13.4598 3.41001C13.0598 3.10001 12.5298 2.94001 11.9898 2.94001Z" fill="#7D8998"/>
<path d="M12 16.25C10.21 16.25 8.75 14.79 8.75 13C8.75 11.21 10.21 9.75 12 9.75C13.79 9.75 15.25 11.21 15.25 13C15.25 14.79 13.79 16.25 12 16.25ZM12 11.25C11.04 11.25 10.25 12.04 10.25 13C10.25 13.96 11.04 14.75 12 14.75C12.96 14.75 13.75 13.96 13.75 13C13.75 12.04 12.96 11.25 12 11.25Z" fill="#7D8998"/>
</svg>
