<svg width="80" height="80" viewBox="0 0 80 80" fill="none" xmlns="http://www.w3.org/2000/svg">
  <g filter="url(#filter0_d_136_11527)">
    <mask id="path-1-outside-1_136_11527" maskUnits="userSpaceOnUse" x="12.5454" y="12.5455"
      width="55" height="55" fill="black">
      <rect fill="white" x="12.5454" y="12.5455" width="55" height="55" />
      <path fill-rule="evenodd" clip-rule="evenodd"
        d="M29.3419 14.5455H50.6834C59.9535 14.5455 65.4799 20.0691 65.4544 29.3346V50.6655C65.4544 59.9309 59.928 65.4546 50.658 65.4546H29.3419C20.0718 65.4546 14.5454 59.9309 14.5454 50.64V29.3346C14.5454 20.0691 20.0718 14.5455 29.3419 14.5455Z" />
    </mask>
    <path fill-rule="evenodd" clip-rule="evenodd"
      d="M29.3419 14.5455H50.6834C59.9535 14.5455 65.4799 20.0691 65.4544 29.3346V50.6655C65.4544 59.9309 59.928 65.4546 50.658 65.4546H29.3419C20.0718 65.4546 14.5454 59.9309 14.5454 50.64V29.3346C14.5454 20.0691 20.0718 14.5455 29.3419 14.5455Z"
      fill="url(#paint0_linear_136_11527)" />
    <path
      d="M65.4544 29.3346L63.4544 29.3291V29.3346H65.4544ZM50.6834 12.5455H29.3419V16.5455H50.6834V12.5455ZM67.4544 29.3401C67.4682 24.308 65.9672 20.0518 62.9695 17.0518C59.9723 14.0523 55.7156 12.5455 50.6834 12.5455V16.5455C54.9213 16.5455 58.0629 17.8004 60.14 19.8791C62.2166 21.9573 63.4661 25.0956 63.4544 29.3291L67.4544 29.3401ZM67.4544 50.6655V29.3346H63.4544V50.6655H67.4544ZM50.658 67.4546C55.6904 67.4546 59.9464 65.9475 62.9463 62.9491C65.9464 59.9506 67.4544 55.6962 67.4544 50.6655H63.4544C63.4544 54.9002 62.1993 58.0404 60.1186 60.12C58.0378 62.1998 54.8955 63.4546 50.658 63.4546V67.4546ZM29.3419 67.4546H50.658V63.4546H29.3419V67.4546ZM12.5454 50.64C12.5454 55.6821 14.0526 59.9428 17.0526 62.9451C20.0528 65.9475 24.3093 67.4546 29.3419 67.4546V63.4546C25.1043 63.4546 21.9627 62.1998 19.8821 60.1177C17.8014 58.0354 16.5454 54.8889 16.5454 50.64H12.5454ZM12.5454 29.3346V50.64H16.5454V29.3346H12.5454ZM29.3419 12.5455C24.3094 12.5455 20.0534 14.0525 17.0535 17.0509C14.0535 20.0494 12.5454 24.3038 12.5454 29.3346H16.5454C16.5454 25.0999 17.8005 21.9597 19.8812 19.88C21.962 17.8003 25.1043 16.5455 29.3419 16.5455V12.5455Z"
      fill="white" mask="url(#path-1-outside-1_136_11527)" />
  </g>
  <rect x="38" y="29" width="4" height="22" rx="2" fill="white" />
  <rect x="29" y="42" width="4" height="22" rx="2" transform="rotate(-90 29 42)" fill="white" />
  <defs>
    <filter id="filter0_d_136_11527" x="8.54541" y="11.5455" width="62.9092" height="62.9091"
      filterUnits="userSpaceOnUse" color-interpolation-filters="sRGB">
      <feFlood flood-opacity="0" result="BackgroundImageFix" />
      <feColorMatrix in="SourceAlpha" type="matrix"
        values="0 0 0 0 0 0 0 0 0 0 0 0 0 0 0 0 0 0 127 0" result="hardAlpha" />
      <feOffset dy="3" />
      <feGaussianBlur stdDeviation="2" />
      <feComposite in2="hardAlpha" operator="out" />
      <feColorMatrix type="matrix" values="0 0 0 0 0.411765 0 0 0 0 0.266667 0 0 0 0 1 0 0 0 0.22 0" />
      <feBlend mode="normal" in2="BackgroundImageFix" result="effect1_dropShadow_136_11527" />
      <feBlend mode="normal" in="SourceGraphic" in2="effect1_dropShadow_136_11527" result="shape" />
    </filter>
    <linearGradient id="paint0_linear_136_11527" x1="52.3804" y1="8.51921" x2="52.4753" y2="63.4605"
      gradientUnits="userSpaceOnUse">
      <stop stop-color="#6944FF" />
      <stop offset="0.787491" stop-color="#9644FF" />
    </linearGradient>
  </defs>
</svg>